HIERARCHY
ROOT Hips
{
	OFFSET	0.00	0.00	0.00
	CHANNELS 6 Xposition Yposition Zposition Zrotation Xrotation Yrotation
	JOINT Spine
	{
		OFFSET	 0.00	0.01	 0.00
		CHANNELS 3 Zrotation Xrotation Yrotation
		JOINT Spine1
		{
			OFFSET	 0.00	 2.45913012437421	 0.00
			CHANNELS 3 Zrotation Xrotation Yrotation
            JOINT Neck
            {
                OFFSET	 0.00	 2.48462964506057	 0.00
                CHANNELS 3 Zrotation Xrotation Yrotation
                JOINT Head
                {
                    OFFSET	 0.00	 0.927524780924562	 0.00
                    CHANNELS 3 Zrotation Xrotation Yrotation
                    End Site 
                    {
                        OFFSET	 0.00	 1.14999962169752	 0.00
                    }
                }
            }
			JOINT LeftShoulder
			{
				OFFSET	 0.00	 2.48462964506057	 0.00
				CHANNELS 3 Zrotation Xrotation Yrotation
				JOINT LeftUpArm
				{
					OFFSET	 0.00	 1.24881979654096	 0.00
					CHANNELS 3 Zrotation Xrotation Yrotation
					JOINT LeftForeArm
					{
						OFFSET	 0.00	2.59758046908119	 0.00
						CHANNELS 3 Zrotation Xrotation Yrotation
						JOINT LeftHand
						{
							OFFSET	 0.00	2.45542024364365	 0.00
							CHANNELS 3 Zrotation Xrotation Yrotation
							JOINT LeftHandThumb 
							{
								OFFSET	 0.00	0.00	 0.00
								CHANNELS 3 Zrotation Xrotation Yrotation
								End Site
								{
									OFFSET	 0.00	0.00	1.00000003353624
								}
							}
							JOINT L_Wrist_End 
							{
								OFFSET	 0.00	0.99999967115358	 0.00
								CHANNELS 3 Zrotation Xrotation Yrotation
								End Site 
								{
									OFFSET	 0.00	 0.00	 0.00
								}
							}
						}
					}
				}
			}
			JOINT RightShoulder
			{
				OFFSET	 0.00	 2.48462964506057	 0.00
				CHANNELS 3 Zrotation Xrotation Yrotation
				JOINT RightUpArm
				{
					OFFSET	 0.00	 1.24881979654096	 0.00
					CHANNELS 3 Zrotation Xrotation Yrotation
					JOINT RightForeArm
					{
						OFFSET	 0.00	2.59758046908119	 0.00
						CHANNELS 3 Zrotation Xrotation Yrotation
						JOINT RightHand
						{
							OFFSET	 0.00	2.45542024364365	 0.00
							CHANNELS 3 Zrotation Xrotation Yrotation
							JOINT RightHandThumb 
							{
								OFFSET	 0.00	0.00	 0.00
								CHANNELS 3 Zrotation Xrotation Yrotation
								End Site
								{
									OFFSET	 0.00	0.00	1.00000003353624
								}
							}
							JOINT R_Wrist_End 
							{
								OFFSET	 0.00	0.99999967115358	 0.00
								CHANNELS 3 Zrotation Xrotation Yrotation
								End Site 
								{
									OFFSET	 0.00	 0.00	 0.00
								}
							}
						}
					}
				}
			}
		}
	}
	JOINT LeftUpLeg
	{
		OFFSET	 1.2719394002717	 0.00	 0.00
		CHANNELS 3 Zrotation Xrotation Yrotation
		JOINT LeftLowLeg
		{
			OFFSET	 0.00	-4.3429100912261	 0.00
			CHANNELS 3 Zrotation Xrotation Yrotation
			JOINT LeftFoot
			{
				OFFSET	 0.00	-4.48767017425826	 0.00
				CHANNELS 3 Zrotation Xrotation Yrotation
				JOINT LeftToeBase
                {
                    OFFSET	 0.00	0.00	 1.51507020887566
                    CHANNELS 3 Zrotation Xrotation Yrotation
                    End Site 
                    {
                        OFFSET	 0.00	0.00	 0.75000010571191
                    }
                }
			}
		}
	}
	JOINT RightUpLeg
	{
		OFFSET	 -1.2719393604653	 0.00	 0.00
		CHANNELS 3 Zrotation Xrotation Yrotation
		JOINT RightLowLeg
		{
			OFFSET	 0.00	-4.3429100912261	 0.00
			CHANNELS 3 Zrotation Xrotation Yrotation
			JOINT RightFoot
			{
				OFFSET	 0.00	-4.48767017425826	 0.00
				CHANNELS 3 Zrotation Xrotation Yrotation
				JOINT RightToeBase
                {
                    OFFSET	 0.00	0.00	 1.51507020887566
                    CHANNELS 3 Zrotation Xrotation Yrotation
                    End Site 
                    {
                        OFFSET	 0.00	0.00	 0.749999965609858
                    }
                }   
			}
		}
	}
}
MOTION 
Frames:	11 
Frame Time: 0.02 
  -1.454949951171875 4.222869873046875 9.495260009765625 -12.1644 -82.7821 363.902 175.423 6.95224 -199.034 -4.26504 9.69625 20.3195 1.07327 51.9208 354.855 127.994 -64.6898 -224.236 -110.3627 -10.6281 362.926 -46.4258 -9.10084 -17.3379 0.0 123.545 0.0 18.1667 -29.1542 -61.7539 0.0 0.0 0.0 0.0 0.0 0.0 115.1509 -16.3654 -354.942 46.4848 -21.512 10.8646 0.0 123.081 0.0 -0.605721 -10.0969 86.7996 0.0 0.0 0.0 0.0 0.0 0.0 174.675 22.2771 177.464 0.0 15.922 0.0 -13.2858 11.99188 8.37089 0.0 -26.7085 0.0 174.221 5.81682 -170.078 0.0 22.6162 0.0 18.7978 -3.2143002 -9.72989 0.0 -24.83206 0.0 
  -1.4022599792480468 4.112210083007812 9.50780029296875 -14.0679 -82.5787 362.088 175.228 7.43615 -198.668 -4.353 9.30053 20.3428 0.6435 52.5178 355.137 128.435 -64.8905 -223.976 -110.3514 -10.6572 362.594 -45.7317 -8.27017 -21.2537 0.0 120.114 0.0 19.279 -31.3823 -61.6128 0.0 0.0 0.0 0.0 0.0 0.0 115.0538 -16.124 -355.025 46.4538 -20.7297 15.0024 0.0 121.271 0.0 -0.366127 -12.8933 88.2668 0.0 0.0 0.0 0.0 0.0 0.0 175.332 21.977 177.992 0.0 15.9508 0.0 -12.0416 12.46149 8.0919 0.0 -26.8526 0.0 174.996 5.65878 -170.363 0.0 22.898 0.0 19.4421 -3.0158997 -9.32658 0.0 -25.1745 0.0 
  -1.3466999816894532 3.9972799682617186 9.521649780273437 -16.2932 -82.4339 360.176 175.022 8.02717 -198.195 -4.55469 9.11762 20.4376 0.337438 53.1816 355.32 128.533 -65.1249 -223.971 -110.437 -10.6698 362.1 -44.9942 -7.44865 -24.5578 0.0 115.958 0.0 20.4574 -32.5608 -60.9268 0.0 0.0 0.0 0.0 0.0 0.0 115.0279 -15.7637 -355.016 46.2499 -19.7217 18.7351 0.0 118.892 0.0 -1.65715 -14.895 88.0554 0.0 0.0 0.0 0.0 0.0 0.0 175.94 21.4317 179.118 0.0 15.8066 0.0 -10.0961 12.9447 7.4747 0.0 -27.3109 0.0 175.865 5.49928 -170.612 0.0 23.2671 0.0 20.0046 -2.6882 -8.75752 0.0 -25.4984 0.0 
  -1.287899932861328 3.880989990234375 9.53594970703125 -18.7382 -82.2956 358.155 174.715 8.65966 -197.669 -4.94576 8.97336 20.5092 -0.28566 53.9046 356.011 128.301 -65.3541 -224.357 -110.5437 -10.6507 361.676 -44.2406 -6.57949 -27.3488 0.0 111.611 0.0 22.4787 -34.9615 -59.8756 0.0 0.0 0.0 0.0 0.0 0.0 115.095505 -15.3887 -354.939 46.0125 -18.5338 22.1897 0.0 116.191 0.0 -2.66775 -17.1204 85.6266 0.0 0.0 0.0 0.0 0.0 0.0 176.604 20.747 179.998 0.0 15.5336 0.0 -9.6305 12.67274 6.94069 0.0 -27.0131 0.0 176.782 5.43121 -170.718 0.0 23.8091 0.0 20.7655 -2.3015995 -8.13248 0.0 -25.946999 0.0 
  -1.2266699981689453 3.7651800537109374 9.55041015625 -21.6451 -82.2667 355.809 174.398 9.14347 -197.135 -5.41718 8.77726 20.6419 -0.861874 54.8397 356.728 127.861 -65.5461 -224.946 -110.7995 -10.59 361.468 -43.3568 -5.68817 -29.5907 0.0 107.371 0.0 24.4662 -38.4252 -58.6273 0.0 0.0 0.0 0.0 0.0 0.0 115.292496 -14.9577 -354.836 45.6748 -17.2982 25.2009 0.0 113.374 0.0 -2.9754 -18.9752 86.3552 0.0 0.0 0.0 0.0 0.0 0.0 177.396 19.8489 180.184 0.0 15.1704 0.0 -9.3454 12.3141 6.97408 0.0 -26.9403 0.0 177.766 5.35318 -170.727 0.0 24.4983 0.0 21.5625 -1.8409996 -7.47191 0.0 -26.4811 0.0 
  -1.1626699829101563 3.650150146484375 9.562349853515625 -24.4984 -82.3105 353.609 173.961 9.60407 -196.523 -6.06085 8.69573 20.8167 -1.16361 55.8377 357.201 126.83 -65.7567 -225.96 -111.1259 -10.4103 361.482 -42.5156 -4.73184 -31.549 0.0 103.323 0.0 26.703 -42.1738 -57.2561 0.0 0.0 0.0 0.0 0.0 0.0 115.5763 -14.4781 -354.814 45.403 -15.9914 27.7742 0.0 110.817 0.0 -3.94322 -21.9481 86.6067 0.0 0.0 0.0 0.0 0.0 0.0 178.194 18.8833 180.27 0.0 14.8317 0.0 -9.35504 11.7728405 7.1121 0.0 -26.4839 0.0 178.723 5.31342 -170.499 0.0 25.3652 0.0 22.4904 -1.3817997 -6.79762 0.0 -27.1152 0.0 
  -1.09552001953125 3.5359698486328126 9.572020263671876 -27.3134 -82.4843 351.489 173.384 9.88702 -195.885 -6.78612 8.49183 21.0087 -0.914321 57.2629 357.024 125.597 -65.9185 -226.991 -111.5396 -10.0553 361.527 -41.7154 -4.09204 -33.1502 0.0 99.6441 0.0 28.4077 -45.8987 -54.4613 0.0 0.0 0.0 0.0 0.0 0.0 115.9763 -13.9312 -354.736 45.1526 -14.9206 30.0369 0.0 108.477 0.0 -4.31629 -24.4899 87.2524 0.0 0.0 0.0 0.0 0.0 0.0 179.004 17.8202 180.324 0.0 14.5282 0.0 -9.0936 11.3221 7.38795 0.0 -26.3918 0.0 179.683 5.22493 -170.345 0.0 26.3257 0.0 23.1744 -0.7793999 -6.18542 0.0 -27.9746 0.0 
  -1.0267800140380858 3.4221600341796874 9.57875 -30.0672 -82.5736 349.447 172.793 10.3114 -195.215 -7.50507 8.48893 21.1944 -1.2977 58.7661 357.556 124.567 -66.12 -227.984 -111.9669 -9.62665 361.267 -41.2346 -3.91213 -34.1077 0.0 96.5649 0.0 30.1112 -49.363 -50.91 0.0 0.0 0.0 0.0 0.0 0.0 116.3023 -13.4416 -354.552 45.1577 -14.0119 32.0399 0.0 106.486 0.0 -3.6342 -26.3735 86.9738 0.0 0.0 0.0 0.0 0.0 0.0 179.859 16.7991 180.145 0.0 14.1204 0.0 -8.81846 10.863279 7.94447 0.0 -26.2635 0.0 -179.371 5.31633 -170.103 0.0 27.4428 0.0 23.8818 -0.1612997 -5.57244 0.0 -28.9365 0.0 
  -0.9569280242919922 3.310159912109375 9.58176025390625 -33.0968 -82.7337 347.089 172.167 10.6181 -194.588 -8.32936 8.50834 21.3493 -0.91732 60.2458 357.123 123.77 -66.1494 -228.363 -112.3141 -9.17525 361.046 -41.0702 -4.06551 -34.2952 0.0 94.5774 0.0 32.9827 -53.0734 -46.5034 0.0 0.0 0.0 0.0 0.0 0.0 116.720505 -12.9365 -354.378 45.2106 -13.2872 33.1235 0.0 105.033 0.0 -4.93969 -28.4518 86.9004 0.0 0.0 0.0 0.0 0.0 0.0 -179.208 15.7614 179.495 0.0 13.8 0.0 -8.63993 10.31259 8.84516 0.0 -26.1047 0.0 -178.426 5.41811 -169.809 0.0 28.706 0.0 24.5941 0.46030045 -4.95756 0.0 -29.996899 0.0 
  -0.8862560272216797 3.200719909667969 9.580490112304688 -36.427 -82.9225 344.377 171.523 10.9814 -193.99 -9.37009 8.9253 21.4964 -0.476667 61.0955 356.67 123.244 -66.0165 -228.402 -112.7023 -8.56238 361.058 -41.2148 -4.5254 -34.347 0.0 93.4832 0.0 34.9158 -54.5614 -44.7873 0.0 0.0 0.0 0.0 0.0 0.0 117.344604 -12.3833 -354.034 45.2532 -12.8892 33.8746 0.0 104.23 0.0 -5.61133 -29.9407 87.5882 0.0 0.0 0.0 0.0 0.0 0.0 -178.267 14.82 179.003 0.0 13.719 0.0 -8.1906 9.73026 9.65587 0.0 -25.9418 0.0 -177.462 5.59247 -169.601 0.0 30.1579 0.0 25.4031 1.0833998 -4.23659 0.0 -31.0731 0.0 
  -0.816719970703125 3.096719970703125 9.57468994140625 -40.4358 -83.1907 340.955 170.922 11.2048 -193.496 -10.5442 9.58995 21.6549 0.0908114 61.0558 356.105 122.919 -65.7998 -228.283 -113.2415 -7.84272 361.468 -41.5661 -5.06215 -34.6363 0.0 93.0934 0.0 35.608 -53.572 -44.8618 0.0 0.0 0.0 0.0 0.0 0.0 118.189804 -11.8004 -353.882 45.289 -12.5218 34.4033 0.0 103.982 0.0 -6.0749 -30.8358 87.4733 0.0 0.0 0.0 0.0 0.0 0.0 -177.399 13.902 179.324 0.0 13.7706 0.0 -8.15785 9.060841 9.52552 0.0 -25.4684 0.0 -176.476 5.81685 -169.526 0.0 31.8483 0.0 26.1022 1.7313004 -3.46736 0.0 -32.1883 0.0 
